<?xml version="1.0" standalone="no"?>
<!DOCTYPE svg PUBLIC "-//W3C//DTD SVG 20010904//EN"
 "http://www.w3.org/TR/2001/REC-SVG-20010904/DTD/svg10.dtd">
<svg version="1.0" xmlns="http://www.w3.org/2000/svg"
 width="287.000000pt" height="287.000000pt" viewBox="0 0 287.000000 287.000000"
 preserveAspectRatio="xMidYMid meet">
<metadata>
Created by potrace 1.11, written by Peter Selinger 2001-2013
</metadata>
<g transform="translate(0.000000,287.000000) scale(0.100000,-0.100000)"
fill="#000000" stroke="none">
<path d="M205 2009 c-4 -6 -4 -13 -1 -16 3 -4 6 -1 6 6 0 7 5 9 12 5 7 -4 8
-3 4 4 -9 15 -13 15 -21 1z"/>
<path d="M1070 1993 c-8 -2 -21 -7 -29 -9 -25 -8 37 -34 80 -34 39 0 60 -14
35 -23 -8 -3 -23 -3 -34 0 -11 2 -23 0 -26 -6 -4 -5 -14 -7 -23 -4 -11 4 -14
3 -9 -5 4 -7 2 -12 -3 -12 -6 0 -11 -7 -11 -15 0 -8 -9 -15 -20 -15 -22 0 -42
-36 -44 -83 0 -15 0 -27 1 -27 1 0 13 4 27 10 30 11 35 -3 9 -20 -17 -11 -17
-11 -1 -6 10 3 20 1 24 -5 8 -14 36 10 27 25 -3 6 -3 8 1 4 4 -3 21 -2 37 4
21 7 32 19 36 39 6 33 37 40 48 12 6 -17 7 -17 16 -1 7 13 5 25 -8 43 -10 13
-21 25 -25 25 -5 0 -8 4 -8 10 0 12 77 33 99 27 9 -2 22 2 29 10 7 7 17 11 23
8 10 -7 13 18 3 28 -4 3 -20 -1 -37 -10 -17 -8 -42 -19 -56 -23 -14 -4 -34
-11 -44 -15 -10 -4 -17 -4 -16 1 4 24 -4 35 -41 54 -21 11 -41 20 -42 19 -2 0
-10 -3 -18 -6z m60 -77 c0 -3 -4 -8 -10 -11 -5 -3 -10 -1 -10 4 0 6 5 11 10
11 6 0 10 -2 10 -4z m4 -62 c-21 -13 -40 -21 -43 -18 -9 9 53 52 67 46 10 -3
2 -13 -24 -28z m-64 6 c-6 -11 -15 -18 -21 -14 -6 4 -6 11 2 20 17 21 31 17
19 -6z"/>
<path d="M173 1962 c-7 -4 -21 -28 -32 -52 -34 -74 -24 -214 21 -305 35 -69
132 -194 151 -194 11 -1 29 -9 41 -19 23 -18 23 -18 -23 -17 -25 0 -51 3 -57
7 -15 10 -26 -16 -17 -39 10 -29 35 -53 47 -46 6 3 8 3 4 -1 -7 -8 2 -21 36
-56 10 -10 15 -23 12 -29 -4 -5 -1 -13 5 -17 8 -4 9 -3 5 4 -4 7 -2 12 3 12
15 0 14 -16 -3 -33 -9 -9 -11 -19 -5 -28 7 -11 9 -11 9 4 0 9 5 17 10 17 10 0
14 -14 11 -37 -1 -8 5 -10 14 -7 8 3 16 1 16 -5 1 -6 3 -14 4 -18 2 -5 6 -18
10 -30 4 -13 10 -23 14 -23 4 0 13 -22 20 -49 7 -27 18 -51 24 -54 17 -6 21
-97 4 -97 -9 0 -9 -2 0 -8 13 -8 11 -42 -4 -65 -4 -6 -6 -20 -5 -29 2 -11 -3
-18 -13 -18 -11 0 -15 6 -10 19 3 10 -1 24 -10 31 -8 7 -12 16 -9 21 3 5 1 9
-5 9 -5 0 -11 -8 -13 -17 -3 -17 -4 -17 -10 -1 -4 10 -1 23 6 31 8 8 12 26 9
43 -2 16 -5 36 -6 44 -1 16 -47 24 -47 9 0 -5 7 -9 16 -9 10 0 14 -6 10 -15
-3 -10 1 -15 12 -15 13 0 14 -2 4 -8 -7 -5 -10 -17 -7 -28 4 -13 2 -12 -6 4
-7 12 -16 22 -21 22 -13 0 -10 -12 9 -32 9 -10 13 -21 10 -25 -9 -9 -14 -3
-32 41 -9 21 -11 35 -6 31 16 -9 13 9 -5 31 -13 16 -15 16 -10 2 3 -10 2 -18
-3 -18 -7 0 -24 29 -34 60 -4 10 -6 9 -6 -5 -1 -17 -3 -17 -11 -5 -14 21 -12
40 3 37 13 -2 15 30 3 78 -4 17 6 3 22 -31 29 -60 55 -84 68 -62 8 12 -16 29
-29 21 -5 -3 -6 5 -2 18 4 16 3 20 -3 11 -7 -11 -11 -10 -16 4 -4 10 0 24 10
36 20 21 11 37 -11 18 -15 -13 -20 -3 -17 39 1 22 -23 40 -47 34 -11 -3 -21
-10 -21 -15 0 -5 8 -7 19 -3 12 3 21 0 25 -10 3 -8 1 -15 -4 -15 -6 0 -10 5
-10 12 0 6 -6 3 -14 -8 -14 -18 -15 -18 -21 11 -13 59 -24 73 -22 29 1 -23 5
-40 8 -38 3 1 13 -19 21 -46 9 -28 12 -50 7 -50 -5 0 -9 -5 -9 -11 0 -6 7 -9
15 -5 8 3 15 1 15 -4 0 -6 -4 -10 -10 -10 -5 0 -4 -16 4 -37 7 -21 11 -45 9
-53 -4 -12 -3 -12 5 -2 7 11 10 11 15 -2 4 -9 12 -15 18 -14 12 3 53 -61 45
-69 -3 -3 -14 10 -25 28 -23 37 -26 35 -11 -8 9 -25 9 -26 -4 -10 -13 17 -14
16 -12 -6 1 -21 4 -23 24 -16 15 6 22 5 22 -4 0 -8 4 -7 10 3 8 12 10 12 10
-5 0 -15 3 -17 9 -7 6 10 10 4 15 -18 9 -49 6 -58 -10 -25 l-13 30 2 -34 c2
-37 -17 -54 -26 -21 -3 11 -10 20 -17 20 -6 0 -9 -4 -6 -9 4 -5 3 -11 -1 -14
-5 -2 -2 -2 5 -1 17 5 15 -13 -2 -19 -9 -4 -12 -14 -9 -26 6 -22 25 -29 22 -8
-3 25 2 33 21 33 11 0 19 -5 17 -11 -2 -5 -11 -9 -20 -9 -14 1 -15 -2 -5 -20
14 -26 23 -36 16 -16 -6 16 16 43 26 33 3 -4 6 -1 6 5 0 6 -5 14 -11 17 -6 5
-4 11 7 19 11 8 15 21 12 34 -4 13 0 23 9 27 13 4 14 0 8 -27 -10 -42 -10 -58
-1 -83 5 -13 5 -16 -1 -7 -15 21 -40 4 -41 -29 0 -16 4 -27 9 -24 5 4 9 -1 9
-10 0 -9 -5 -13 -11 -9 -6 3 -15 1 -19 -6 -5 -9 -9 -9 -14 -1 -4 6 -2 11 3 11
6 0 11 5 11 10 0 6 -7 10 -15 10 -9 0 -12 6 -9 15 4 10 0 15 -11 15 -12 0 -15
-5 -10 -17 4 -10 10 -27 12 -38 4 -18 13 -21 65 -22 51 -2 63 1 79 20 15 18
18 19 19 5 0 -9 -6 -19 -13 -21 -6 -3 35 -5 93 -5 58 0 97 2 88 5 -10 2 -18
11 -18 19 0 11 6 13 19 9 11 -3 22 -1 26 5 4 6 13 9 21 6 8 -3 14 -1 14 4 0 6
9 10 20 10 11 0 20 4 20 9 0 5 8 11 18 14 9 4 29 16 43 27 33 27 102 37 135
20 13 -7 24 -17 24 -22 0 -5 -5 -6 -12 -2 -22 14 -112 4 -126 -14 -7 -9 -16
-18 -20 -18 -26 -5 -52 -18 -52 -25 0 -5 -4 -9 -10 -9 -5 0 -24 -9 -42 -20
l-32 -19 74 0 c41 0 69 3 63 7 -13 9 -13 42 0 42 5 0 7 -6 4 -14 -4 -10 0 -12
14 -9 15 4 18 2 13 -11 -5 -13 1 -16 37 -16 36 0 40 2 27 13 -9 6 -23 24 -33
40 -17 26 -17 27 1 27 34 0 66 -12 54 -20 -8 -5 -4 -15 12 -34 18 -21 30 -27
53 -24 l30 4 -35 11 c-19 6 -29 12 -21 12 11 1 10 6 -3 26 -21 32 -21 31 19
31 21 0 30 -3 22 -8 -9 -6 -9 -8 1 -8 6 0 12 -7 12 -15 0 -8 5 -15 10 -15 6 0
10 -9 10 -21 0 -17 5 -20 32 -17 32 3 52 37 20 34 -10 -1 -17 7 -17 20 0 11
-6 29 -14 38 -14 16 -12 16 30 1 55 -21 85 -35 127 -59 55 -31 29 -29 -42 4
-37 16 -74 30 -84 29 -10 -1 -7 -4 8 -8 16 -5 24 -13 22 -24 -2 -10 4 -17 13
-17 8 0 15 -4 15 -10 0 -5 9 -10 21 -10 13 0 18 4 13 12 -5 8 -2 9 12 3 10 -4
54 -10 96 -12 l77 -4 -12 24 c-6 14 -24 33 -39 43 -15 11 -28 24 -28 31 0 16
-49 53 -70 53 -9 0 -17 7 -17 15 0 8 3 15 5 15 17 0 106 -68 157 -120 l59 -60
248 0 c236 0 248 1 248 19 0 10 7 25 16 32 15 12 16 10 10 -18 l-7 -32 248 0
c146 -1 242 3 234 8 -12 8 -18 39 -25 132 -2 26 1 36 10 32 8 -3 12 -23 11
-58 -1 -39 3 -59 15 -71 15 -16 17 -15 23 19 11 58 -11 140 -45 165 -16 12
-35 22 -43 22 -32 0 -60 58 -121 252 -21 64 -43 119 -50 121 -22 9 -240 -33
-307 -58 -36 -14 -80 -36 -98 -49 l-33 -24 -48 24 c-56 28 -57 28 -76 9 -35
-34 -78 -6 -111 70 -24 56 -54 153 -50 163 1 4 -2 8 -8 9 -15 3 -24 37 -13 51
6 6 7 12 3 12 -4 0 -1 8 6 18 7 9 1 6 -15 -8 -15 -14 -35 -43 -44 -64 -15 -37
-16 -38 -25 -18 -6 12 -14 22 -19 22 -4 0 -8 6 -8 14 0 50 -127 39 -180 -14
-10 -10 -15 -22 -12 -26 4 -4 -5 -4 -19 -1 -18 5 -35 0 -59 -18 -58 -43 -110
-103 -110 -127 0 -13 3 -18 8 -12 4 6 24 20 44 31 21 11 35 23 32 26 -8 8 75
67 94 67 8 0 31 14 52 30 21 17 49 30 62 30 13 0 28 4 34 10 6 6 10 2 11 -13
2 -29 -115 -106 -228 -148 -69 -27 -78 -33 -63 -44 14 -10 26 -10 58 0 41 12
63 24 163 83 29 17 55 27 58 22 3 -5 0 -12 -7 -16 -8 -5 -4 -10 10 -15 26 -10
29 -44 7 -75 -8 -12 -11 -24 -8 -28 3 -3 -2 -6 -11 -6 -31 0 -96 -53 -90 -72
3 -11 0 -18 -9 -18 -8 0 -18 -8 -23 -18 -7 -14 -17 -16 -49 -11 -26 4 -31 7
-15 8 l25 1 -25 20 c-14 11 -19 20 -12 20 7 0 10 5 6 11 -4 7 -9 7 -13 2 -17
-26 -101 -25 -101 0 0 7 -15 21 -34 31 -21 11 -41 33 -51 57 -24 53 -32 41
-10 -16 19 -51 13 -71 -11 -37 -8 12 -19 20 -24 17 -9 -5 -26 33 -22 49 2 5
-4 16 -13 26 -8 9 -13 19 -10 21 2 3 -14 17 -37 32 -34 22 -54 27 -105 27 -39
0 -63 4 -63 11 0 13 -51 69 -63 69 -25 0 -67 86 -60 121 6 24 52 19 87 -9 16
-12 36 -22 45 -22 11 0 10 4 -7 16 -26 18 -30 64 -6 64 23 0 54 -19 81 -49 19
-21 18 -17 -7 23 -36 60 -37 65 -7 59 30 -6 57 20 57 53 0 22 4 25 28 24 49
-4 60 0 65 20 4 15 0 20 -14 20 -10 0 -19 5 -19 10 0 6 -6 10 -12 9 -7 -2 -28
1 -46 5 -29 7 -39 3 -87 -33 -36 -28 -52 -46 -49 -56 4 -8 1 -15 -5 -15 -6 0
-11 3 -11 8 0 4 -11 12 -25 19 -14 6 -23 7 -19 2 3 -5 0 -9 -7 -9 -33 0 21
122 60 135 20 7 56 55 41 55 -5 0 -10 -4 -10 -10 0 -5 -10 -10 -22 -10 -51 -1
-98 -66 -98 -136 0 -19 -4 -34 -10 -34 -5 0 -10 6 -10 13 0 8 -4 7 -10 -3 -8
-12 -10 -9 -10 12 0 21 -4 26 -16 21 -9 -3 -11 -8 -6 -12 6 -3 14 -20 18 -36
l7 -30 -22 19 c-18 17 -21 17 -21 3 0 -23 -13 -21 -35 3 -10 11 -24 20 -32 20
-7 0 -13 5 -13 10 0 6 4 10 9 10 6 0 13 -4 16 -10 3 -5 11 -10 17 -10 6 0 5 6
-3 16 -10 13 -10 17 0 24 8 4 10 13 7 19 -4 6 -13 8 -19 4 -9 -5 -9 -3 0 8 6
8 9 27 6 43 -6 27 -7 28 -52 22 -62 -8 -111 20 -111 64 0 17 -5 30 -13 30 -18
0 -45 83 -36 109 9 22 3 26 -18 13z m654 -310 c11 -7 3 -11 -31 -14 -26 -3
-64 -17 -87 -33 l-41 -26 8 23 c6 20 5 21 -10 9 -9 -7 -16 -11 -16 -7 0 3 18
19 40 35 21 15 37 31 34 33 -8 8 85 -10 103 -20z m-77 -52 c0 -5 -2 -10 -4
-10 -3 0 -8 5 -11 10 -3 6 -1 10 4 10 6 0 11 -4 11 -10z m-90 -20 c0 -5 -5
-10 -11 -10 -5 0 -7 5 -4 10 3 6 8 10 11 10 2 0 4 -4 4 -10z m-273 -56 c-3 -3
-12 -4 -19 -1 -8 3 -5 6 6 6 11 1 17 -2 13 -5z m8 -24 c-3 -5 -10 -10 -16 -10
-5 0 -9 5 -9 10 0 6 7 10 16 10 8 0 12 -4 9 -10z m993 -172 c19 -19 15 -48 -7
-48 -11 0 -22 -6 -25 -12 -4 -7 -4 -2 -1 12 2 14 5 33 5 43 0 20 11 22 28 5z
m-1020 -33 c6 -14 8 -25 3 -25 -5 0 -16 11 -25 25 -13 20 -14 25 -3 25 8 0 19
-11 25 -25z m37 -56 c11 -17 -1 -21 -15 -4 -8 9 -8 15 -2 15 6 0 14 -5 17 -11z
m343 -51 c7 -7 12 -18 12 -25 0 -8 -7 -6 -20 7 -11 11 -20 22 -20 25 0 9 16 5
28 -7z m742 -89 c0 -25 -61 -64 -72 -46 -6 9 -8 9 -8 -1 0 -8 -8 -10 -26 -6
-26 7 -27 5 -19 -22 14 -53 12 -58 -28 -68 -50 -13 -71 0 -75 46 -3 31 2 39
39 69 69 54 189 72 189 28z m-1181 -99 c0 -17 -23 33 -33 71 -3 13 3 6 14 -16
11 -22 19 -47 19 -55z m1076 30 c3 -5 1 -10 -4 -10 -6 0 -11 5 -11 10 0 6 2
10 4 10 3 0 8 -4 11 -10z m-435 -70 c13 -8 13 -10 -2 -10 -9 0 -20 5 -23 10
-8 13 5 13 25 0z m-620 -58 c0 -15 -2 -15 -10 -2 -13 20 -13 33 0 25 6 -3 10
-14 10 -23z m280 8 c0 -5 -4 -10 -10 -10 -5 0 -10 5 -10 10 0 6 5 10 10 10 6
0 10 -4 10 -10z m70 -33 c13 -5 13 -6 -1 -6 -8 -1 -24 6 -35 15 -19 15 -19 15
1 6 11 -5 27 -12 35 -15z m25 -17 c44 -1 47 -2 25 -11 -30 -13 -98 -5 -114 12
-8 9 -5 10 14 5 14 -3 48 -6 75 -6z m165 0 c12 -8 12 -10 -5 -10 -11 0 -27 5
-35 10 -12 8 -12 10 5 10 11 0 27 -5 35 -10z m134 -30 c6 -4 27 -13 46 -19 27
-8 17 -9 -50 -3 -47 3 -104 6 -127 5 -24 0 -40 3 -37 8 3 5 1 9 -5 9 -5 0 -13
-4 -16 -10 -3 -5 -27 -10 -53 -10 -26 0 -63 -1 -82 -3 -32 -4 -86 14 -76 24 9
8 390 8 400 -1z m771 -1 c11 -17 2 -18 -19 -3 -17 12 -17 14 -4 14 9 0 20 -5
23 -11z m59 -5 c5 -14 4 -15 -9 -4 -17 14 -19 20 -6 20 5 0 12 -7 15 -16z
m-659 -6 c14 -6 25 -15 25 -20 0 -7 -31 8 -59 29 -10 7 10 2 34 -9z m-453 -40
c31 -3 55 -1 53 3 -3 4 79 6 183 5 171 -2 191 -4 232 -24 25 -12 38 -20 29
-18 -9 2 -21 0 -25 -4 -19 -19 -111 -10 -187 19 -38 15 -25 -10 14 -28 22 -10
28 -16 20 -24 -9 -9 -16 -9 -29 0 -10 6 -38 11 -62 12 -61 1 -121 -21 -198
-72 -38 -25 -50 -28 -88 -22 -29 4 -44 11 -44 21 0 10 7 13 25 8 34 -8 91 3
110 23 9 9 42 26 73 39 40 17 50 24 32 24 -31 0 -110 -27 -130 -44 -24 -21
-50 -27 -86 -20 -50 9 -45 34 6 27 30 -4 53 1 92 20 29 13 60 28 68 31 8 3 2
4 -15 2 -16 -2 -50 -12 -75 -22 -31 -12 -57 -15 -83 -10 -48 9 -48 26 1 19 22
-3 51 1 72 11 29 13 31 14 7 9 -41 -8 -117 6 -117 22 0 10 8 11 33 5 17 -5 58
-10 89 -12z m-191 -24 c-11 -15 -21 -23 -21 -18 0 14 31 56 37 50 3 -3 -4 -17
-16 -32z m1694 -31 c4 -21 9 -45 11 -54 3 -9 -3 -19 -12 -23 -22 -8 -20 -11
-28 57 -6 47 -5 57 8 57 10 0 17 -13 21 -37z m52 25 c10 -13 26 -78 19 -78 -3
0 -11 -3 -20 -6 -10 -4 -15 0 -14 13 1 10 -2 33 -6 51 -8 33 3 43 21 20z m63
-6 c0 -26 -11 -34 -27 -21 -20 17 -16 39 7 39 13 0 20 -7 20 -18z m-1819 -48
c-11 -15 -21 -23 -21 -18 0 14 31 56 37 50 3 -3 -4 -17 -16 -32z m1635 25 c3
-6 2 -14 -2 -19 -12 -11 -57 7 -49 20 8 13 42 13 51 -1z m-96 -8 c0 -10 -24
-21 -43 -21 -7 0 -3 7 7 15 22 17 36 19 36 6z m-1600 -11 c0 -5 -4 -10 -10
-10 -5 0 -10 5 -10 10 0 6 5 10 10 10 6 0 10 -4 10 -10z m1500 -35 c-7 -9 -15
-13 -18 -10 -3 2 1 11 8 20 7 9 15 13 18 10 3 -2 -1 -11 -8 -20z m448 -28 c3
-47 -2 -53 -32 -41 -32 12 -13 101 19 91 5 -2 11 -25 13 -50z m-1878 15 c0 -4
-9 -15 -20 -25 -22 -19 -29 0 -8 21 14 14 28 16 28 4z m1790 -30 c0 -17 -52
-12 -58 6 -5 16 40 33 50 18 4 -6 8 -17 8 -24z m-1875 10 c-3 -3 -11 0 -18 7
-9 10 -8 11 6 5 10 -3 15 -9 12 -12z m1625 -13 c0 -16 4 -19 21 -14 15 5 20 3
17 -6 -6 -17 -48 -25 -48 -9 0 6 -5 8 -10 5 -6 -4 -8 -11 -5 -16 4 -5 2 -9 -3
-9 -17 0 -20 50 -5 66 18 17 33 10 33 -17z m75 11 c-3 -5 -10 -10 -16 -10 -5
0 -9 5 -9 10 0 6 7 10 16 10 8 0 12 -4 9 -10z m75 -10 c0 -5 -3 -10 -7 -10 -5
0 -18 -3 -30 -6 -17 -5 -23 -2 -23 10 0 11 9 16 30 16 17 0 30 -4 30 -10z
m-1573 -42 c-3 -8 -6 -5 -6 6 -1 11 2 17 5 13 3 -3 4 -12 1 -19z m558 12 c3
-6 -1 -7 -9 -4 -18 7 -21 14 -7 14 6 0 13 -4 16 -10z"/>
<path d="M898 773 c7 -3 16 -2 19 1 4 3 -2 6 -13 5 -11 0 -14 -3 -6 -6z"/>
<path d="M853 753 c9 -2 23 -2 30 0 6 3 -1 5 -18 5 -16 0 -22 -2 -12 -5z"/>
<path d="M1150 750 c20 -13 43 -13 35 0 -3 6 -16 10 -28 10 -18 0 -19 -2 -7
-10z"/>
<path d="M1311 1914 c0 -11 3 -14 6 -6 3 7 2 16 -1 19 -3 4 -6 -2 -5 -13z"/>
<path d="M362 1853 c3 -11 1 -28 -4 -37 -14 -25 2 -43 19 -21 13 19 15 17 17
-20 2 -33 55 -14 56 20 0 17 -44 62 -69 70 -21 6 -23 4 -19 -12z"/>
<path d="M1201 1793 c-1 -6 -14 -20 -31 -30 -16 -9 -30 -23 -30 -30 0 -24 26
-14 61 24 18 20 29 33 22 29 -6 -3 -14 0 -16 6 -4 9 -6 10 -6 1z"/>
<path d="M855 1753 c-22 -3 -42 -8 -45 -13 -3 -5 -18 -16 -34 -24 -28 -14 -26
-14 42 -13 38 1 68 5 66 8 -2 3 7 4 21 2 20 -4 23 -2 18 15 -3 14 -10 19 -21
15 -10 -4 -13 -2 -8 5 4 7 6 11 4 10 -2 -1 -21 -3 -43 -5z"/>
<path d="M1069 1740 c-1 -3 -2 -17 -3 -32 -2 -21 3 -28 16 -28 10 0 21 -7 24
-15 4 -8 13 -15 22 -15 12 0 10 7 -10 28 -14 15 -30 36 -36 47 -6 11 -12 18
-13 15z"/>
<path d="M968 1697 c-3 -19 -2 -25 4 -19 6 6 8 18 6 28 -3 14 -5 12 -10 -9z"/>
<path d="M1300 1702 c0 -18 -72 -62 -105 -63 -17 -1 -22 -3 -12 -6 9 -2 14 -9
10 -15 -9 -15 24 -3 63 24 34 23 59 56 50 66 -3 3 -6 0 -6 -6z"/>
<path d="M966 1647 c-14 -21 -16 -30 -7 -41 16 -19 17 -66 3 -93 -6 -11 -25
-33 -43 -47 -19 -16 -25 -26 -15 -26 8 0 20 8 25 18 9 14 10 12 11 -14 0 -33
14 -44 52 -44 16 0 18 3 9 14 -9 11 1 18 51 36 35 12 75 35 91 50 30 30 67 45
68 27 0 -7 4 -3 9 8 4 11 4 24 0 29 -12 13 -60 -2 -60 -19 0 -18 -50 -45 -83
-45 -15 0 -40 -15 -65 -40 -22 -22 -44 -40 -50 -40 -5 0 -12 14 -14 30 -3 17
-2 30 1 30 12 0 40 65 44 100 2 19 1 49 -3 65 l-6 30 -18 -28z"/>
<path d="M743 1512 c-13 -2 -23 -7 -23 -12 0 -6 10 -6 23 -1 12 4 28 6 35 4 6
-3 12 -3 12 0 0 8 -24 13 -47 9z"/>
<path d="M5 1240 c-3 -5 -1 -10 4 -10 6 0 11 5 11 10 0 6 -2 10 -4 10 -3 0 -8
-4 -11 -10z"/>
<path d="M152 1225 c0 -16 2 -22 5 -12 2 9 2 23 0 30 -3 6 -5 -1 -5 -18z"/>
<path d="M51 1234 c-1 -6 6 -17 14 -24 12 -10 15 -9 15 4 0 10 -4 15 -9 12 -5
-4 -12 0 -14 6 -4 8 -6 9 -6 2z"/>
<path d="M131 1224 c0 -11 3 -14 6 -6 3 7 2 16 -1 19 -3 4 -6 -2 -5 -13z"/>
<path d="M108 1207 c-3 -14 0 -24 7 -24 7 0 10 10 7 24 -2 13 -6 23 -7 23 -1
0 -5 -10 -7 -23z"/>
<path d="M33 1169 c-12 -31 -8 -59 8 -59 14 0 11 18 -3 23 -21 7 -3 18 36 21
33 4 36 2 31 -18 -5 -17 -4 -18 4 -6 12 17 14 6 5 -27 -4 -13 -12 -23 -19 -23
-8 0 -12 -12 -12 -28 1 -16 7 -29 14 -29 8 0 11 7 8 16 -5 18 8 44 21 41 5 -1
10 4 12 12 2 9 0 8 -7 -2 -14 -19 -14 0 -1 35 5 14 14 23 20 20 5 -3 10 -1 10
4 0 14 -17 14 -25 0 -5 -6 -12 -4 -21 8 -7 10 -14 14 -14 8 -1 -5 -5 -1 -10
10 l-9 20 0 -20 c-1 -17 -3 -17 -11 -5 -6 10 -10 11 -10 3 0 -7 -4 -13 -9 -13
-5 0 -7 9 -4 20 8 31 -1 24 -14 -11z"/>
<path d="M1580 1170 c0 -5 5 -10 10 -10 6 0 10 5 10 10 0 6 -4 10 -10 10 -5 0
-10 -4 -10 -10z"/>
<path d="M65 1131 c-6 -11 9 -23 19 -14 9 9 7 23 -3 23 -6 0 -12 -4 -16 -9z"/>
<path d="M7 1103 c-4 -15 -3 -79 2 -92 0 -2 7 2 14 8 8 6 17 8 20 4 4 -3 7 -1
7 5 0 7 -7 12 -15 12 -8 0 -15 -5 -15 -12 0 -6 -3 -8 -7 -5 -3 4 6 19 21 34
21 20 25 22 20 7 -9 -23 -1 -17 14 12 9 16 8 21 -4 21 -7 0 -14 -5 -14 -10 0
-5 -7 -6 -16 -3 -12 5 -15 2 -10 -9 3 -10 2 -14 -5 -9 -6 3 -8 17 -5 30 4 13
4 24 2 24 -3 0 -7 -8 -9 -17z"/>
<path d="M166 1084 c-10 -26 -7 -29 8 -8 14 18 15 18 26 -10 6 -16 8 -36 5
-45 -3 -8 -3 -12 1 -8 5 4 14 -3 21 -15 8 -15 12 -18 13 -8 0 11 2 12 8 3 5
-8 8 1 8 22 0 18 -4 31 -8 29 -5 -3 -12 5 -17 18 -9 21 -10 21 -11 3 -1 -16
-4 -15 -12 8 -11 30 -32 36 -42 11z m74 -74 c0 -13 -1 -13 -10 0 -5 8 -10 22
-10 30 0 13 1 13 10 0 5 -8 10 -22 10 -30z"/>
<path d="M1120 1089 c0 -5 5 -7 10 -4 6 3 10 8 10 11 0 2 -4 4 -10 4 -5 0 -10
-5 -10 -11z"/>
<path d="M1048 1043 c7 -3 16 -2 19 1 4 3 -2 6 -13 5 -11 0 -14 -3 -6 -6z"/>
<path d="M144 1025 c-4 -8 -11 -12 -18 -8 -6 3 -2 -3 8 -15 17 -20 15 -27 -8
-23 -5 1 -6 -5 -3 -13 4 -10 0 -14 -13 -11 -10 2 -21 -2 -23 -10 -4 -9 1 -11
16 -9 21 4 21 4 2 -5 -14 -6 -23 -5 -31 6 -10 11 -12 9 -10 -12 1 -17 5 -24
15 -20 8 3 21 -1 31 -10 14 -13 19 -13 36 -1 17 13 17 14 -8 9 -15 -3 -29 0
-33 8 -5 7 -4 10 2 6 6 -4 18 4 27 18 9 14 14 25 10 25 -4 0 0 7 7 17 11 13
11 17 2 20 -9 3 -10 10 -3 24 6 10 8 19 5 19 -3 0 -8 -7 -11 -15z"/>
<path d="M400 1031 c0 -7 -4 -9 -10 -6 -5 3 -10 2 -10 -4 0 -5 5 -13 10 -16
11 -7 26 22 16 32 -3 4 -6 1 -6 -6z"/>
<path d="M30 1003 c0 -6 -7 -18 -15 -27 -9 -9 -11 -17 -5 -21 5 -3 10 0 10 7
1 7 8 2 16 -12 8 -14 13 -17 10 -7 -3 9 -9 25 -12 35 -5 14 -3 14 10 -2 9 -11
16 -14 16 -8 0 7 0 14 0 17 0 3 -3 5 -6 4 -4 0 -11 5 -15 13 -6 9 -9 9 -9 1z"/>
<path d="M91 1005 c0 -5 3 -16 8 -23 7 -11 9 -10 14 3 4 9 3 14 -2 10 -5 -3
-12 1 -14 7 -3 7 -6 9 -6 3z"/>
<path d="M206 973 c-6 -20 -36 -28 -36 -9 0 5 -7 1 -15 -10 -8 -10 -14 -23
-15 -29 0 -5 4 -4 8 2 4 7 18 14 31 16 12 2 27 10 32 18 7 12 9 12 9 0 0 -8 3
-12 6 -8 3 3 1 13 -4 23 -9 16 -10 16 -16 -3z"/>
<path d="M333 962 c0 -12 5 -22 9 -22 11 0 10 12 -2 30 -7 12 -9 10 -7 -8z"/>
<path d="M440 970 c0 -5 -6 -7 -14 -4 -8 3 -17 0 -22 -7 -5 -9 -2 -10 9 -6 10
4 20 0 25 -10 8 -13 10 -11 10 10 0 15 -2 27 -4 27 -2 0 -4 -4 -4 -10z"/>
<path d="M266 945 c4 -23 3 -26 -5 -15 -10 13 -11 13 -11 0 0 -9 -3 -11 -8 -5
-10 14 -34 13 -39 -2 -3 -8 5 -11 26 -8 26 3 30 0 28 -17 -1 -12 4 -22 14 -23
12 -2 15 5 12 31 -1 19 -7 42 -13 52 -8 13 -9 11 -4 -13z"/>
<path d="M465 930 c3 -5 8 -10 11 -10 2 0 4 5 4 10 0 6 -5 10 -11 10 -5 0 -7
-4 -4 -10z"/>
<path d="M176 915 c-3 -8 -3 -22 0 -29 4 -11 -1 -14 -20 -10 -19 3 -26 0 -26
-11 0 -8 5 -14 11 -12 6 1 14 -4 16 -10 3 -8 -3 -13 -14 -13 -15 0 -16 -2 -3
-10 12 -7 18 -3 27 18 6 15 13 25 15 22 7 -7 38 20 38 33 0 6 -7 2 -16 -9 -13
-16 -15 -16 -10 -1 3 9 1 17 -4 17 -5 0 -7 7 -4 15 4 8 4 15 1 15 -3 0 -7 -7
-11 -15z"/>
<path d="M34 912 c3 -6 -3 -13 -14 -17 -22 -7 -26 -20 -8 -31 7 -5 8 -3 4 5
-5 8 0 14 13 18 23 6 27 18 9 29 -6 4 -8 3 -4 -4z"/>
<path d="M85 870 c-3 -11 -10 -18 -14 -16 -13 8 -5 -42 10 -60 12 -15 12 -17
-1 -12 -8 2 -21 15 -27 29 -9 17 -13 19 -13 7 0 -9 5 -20 11 -24 6 -3 8 -17 4
-33 -6 -25 -6 -25 9 -6 12 15 16 17 17 5 1 -8 0 -19 -1 -25 -1 -5 2 -7 6 -3 4
4 12 4 18 -2 8 -6 12 -3 13 11 1 14 -3 19 -13 15 -8 -3 -14 1 -14 10 0 12 4
12 20 4 14 -8 20 -8 20 0 0 6 5 8 12 4 7 -5 8 -3 3 5 -6 10 -3 11 13 2 21 -11
42 2 22 14 -6 4 -7 12 -3 18 4 7 0 6 -10 -2 -9 -7 -17 -10 -17 -5 0 4 -6 0
-14 -11 -13 -18 -14 -18 -38 1 -22 16 -24 23 -16 46 6 16 15 28 21 28 6 0 7
-3 4 -7 -4 -3 -1 -13 6 -21 10 -13 9 -15 -6 -9 -14 5 -18 3 -15 -10 5 -26 33
-24 34 3 1 13 -2 24 -6 24 -4 0 -7 7 -6 16 2 25 -21 28 -29 4z"/>
<path d="M451 866 c-9 -10 -8 -15 2 -19 8 -3 13 3 13 14 0 23 0 23 -15 5z"/>
<path d="M211 853 c-5 -10 -13 -17 -18 -16 -9 1 -9 -1 1 -32 3 -12 -2 -30 -15
-45 -12 -14 -19 -18 -16 -9 4 13 1 15 -14 12 -12 -4 -18 -13 -17 -28 1 -13 5
-23 8 -23 23 2 31 -4 26 -19 -6 -17 -5 -17 8 0 10 13 15 15 19 5 2 -7 4 -1 4
15 0 15 -3 27 -8 27 -5 0 -6 7 -2 16 5 13 8 13 15 2 7 -10 8 -9 4 5 -4 13 1
17 22 18 15 0 21 3 14 6 -6 2 -9 10 -5 16 4 7 0 7 -9 -1 -14 -11 -16 -11 -14
1 1 8 8 23 16 33 13 15 13 16 1 9 -11 -6 -13 -4 -8 8 8 22 1 22 -12 0z m-45
-123 c8 0 14 -5 14 -10 0 -7 -6 -7 -20 0 -11 6 -20 16 -19 23 0 9 2 9 6 0 2
-7 11 -13 19 -13z"/>
<path d="M257 833 c4 -11 8 -12 13 -3 6 9 10 8 17 -5 9 -15 11 -16 16 -1 4 9
3 15 -1 15 -4 -1 -9 0 -12 1 -24 9 -38 6 -33 -7z"/>
<path d="M0 815 c0 -2 6 -8 13 -14 10 -8 14 -7 14 2 0 8 -6 14 -14 14 -7 0
-13 -1 -13 -2z"/>
<path d="M274 802 c3 -5 0 -13 -6 -15 -8 -3 -6 -6 5 -6 19 -1 23 14 5 25 -6 4
-8 3 -4 -4z"/>
<path d="M460 800 c0 -6 7 -10 15 -10 8 0 15 2 15 4 0 2 -7 6 -15 10 -8 3 -15
1 -15 -4z"/>
<path d="M345 769 c-4 -6 -4 -13 -1 -16 3 -4 6 -1 6 5 0 6 8 13 18 15 15 4 15
5 0 6 -9 0 -20 -4 -23 -10z"/>
<path d="M217 748 c-6 -22 9 -41 24 -32 4 2 10 0 14 -6 4 -6 11 -7 17 -4 6 4
8 2 4 -4 -3 -6 -2 -13 3 -16 5 -4 8 2 6 11 -2 10 -4 22 -4 26 -1 5 -5 5 -11 2
-5 -3 -10 -2 -10 4 0 5 -8 8 -19 6 -14 -3 -18 1 -14 16 3 10 3 19 0 19 -2 0
-7 -10 -10 -22z"/>
<path d="M246 763 c-3 -4 -6 -11 -6 -17 0 -6 5 -4 10 4 7 11 10 11 10 2 0 -7
5 -10 10 -7 6 3 13 -1 16 -10 6 -13 9 -14 16 -3 6 8 7 2 4 -19 -2 -18 1 -33 7
-36 8 -3 12 9 12 33 0 21 -4 36 -9 32 -5 -3 -7 1 -4 10 4 8 1 15 -7 15 -7 0
-11 -7 -8 -16 4 -14 3 -14 -9 -1 -15 17 -32 22 -42 13z"/>
<path d="M15 746 c11 -9 20 -22 20 -27 0 -14 36 -40 46 -34 4 3 9 -1 12 -7 2
-7 4 0 4 16 0 15 -2 24 -6 19 -10 -14 -46 -9 -46 6 0 7 -11 20 -25 28 -24 14
-24 14 -5 -1z"/>
<path d="M215 700 c-3 -5 2 -7 12 -6 14 3 18 -3 19 -23 1 -22 -3 -27 -20 -26
-13 1 -20 9 -20 19 2 17 -21 22 -31 7 -3 -6 -14 -8 -25 -6 -12 2 -18 0 -15 -6
4 -5 10 -7 15 -4 5 3 11 1 15 -5 3 -5 0 -10 -7 -10 -10 0 -10 -2 1 -9 7 -5 29
-5 48 -1 26 6 33 5 30 -4 -4 -9 4 -12 25 -10 17 2 37 -1 44 -7 11 -9 15 -7 20
7 4 11 9 22 11 26 2 4 -7 12 -19 18 -21 10 -21 10 -6 -3 20 -16 14 -27 -15
-27 -15 0 -18 5 -14 21 3 12 3 18 0 15 -4 -3 -11 4 -17 16 -11 22 -42 33 -51
18z m-22 -44 c4 -10 1 -13 -8 -9 -8 3 -12 9 -9 14 7 12 11 11 17 -5z m77 -12
c0 -8 -4 -14 -8 -14 -4 0 -8 9 -8 19 0 11 4 17 8 15 4 -3 8 -12 8 -20z"/>
<path d="M37 679 c7 -7 15 -10 18 -7 3 3 -2 9 -12 12 -14 6 -15 5 -6 -5z"/>
<path d="M5 659 c-11 -16 -1 -19 13 -3 7 8 8 14 3 14 -5 0 -13 -5 -16 -11z"/>
<path d="M73 645 c0 -8 4 -12 9 -9 4 3 8 9 8 15 0 5 -4 9 -8 9 -5 0 -9 -7 -9
-15z"/>
<path d="M100 650 c0 -5 5 -10 11 -10 5 0 7 5 4 10 -3 6 -8 10 -11 10 -2 0 -4
-4 -4 -10z"/>
<path d="M46 633 c-6 -14 -5 -15 5 -6 7 7 10 15 7 18 -3 3 -9 -2 -12 -12z"/>
<path d="M24 608 c3 -11 0 -18 -7 -18 -6 0 -1 -7 11 -16 31 -21 33 -15 10 21
-11 17 -18 22 -14 13z"/>
<path d="M56 604 c-8 -20 -8 -24 2 -24 4 0 8 9 9 20 2 24 -3 26 -11 4z"/>
<path d="M254 589 c0 -11 4 -15 11 -10 5 5 18 7 28 6 10 -2 16 2 14 8 -2 6
-14 12 -28 12 -18 1 -25 -4 -25 -16z"/>
<path d="M326 603 c-11 -11 -6 -23 9 -23 8 0 15 4 15 9 0 13 -16 22 -24 14z"/>
<path d="M85 580 c-7 -12 19 -24 37 -17 7 3 3 6 -10 6 -13 1 -20 5 -17 11 3 6
4 10 1 10 -3 0 -8 -5 -11 -10z"/>
<path d="M185 580 c3 -5 8 -10 11 -10 2 0 4 5 4 10 0 6 -5 10 -11 10 -5 0 -7
-4 -4 -10z"/>
<path d="M146 568 c3 -5 10 -6 15 -3 13 9 11 12 -6 12 -8 0 -12 -4 -9 -9z"/>
<path d="M280 570 c-13 -8 -12 -10 3 -10 9 0 17 5 17 10 0 12 -1 12 -20 0z"/>
</g>
</svg>
